<?xml version="1.0" encoding="UTF-8" standalone="no"?>
<!DOCTYPE svg PUBLIC "-//W3C//DTD SVG 1.1//EN"
 "http://www.w3.org/Graphics/SVG/1.1/DTD/svg11.dtd">
<!-- Generated by graphviz version 2.50.0 (0)
 -->
<!-- Title: model Pages: 1 -->
<svg width="224pt" height="498pt"
 viewBox="0.00 0.00 224.00 498.00" xmlns="http://www.w3.org/2000/svg" xmlns:xlink="http://www.w3.org/1999/xlink">
<g id="graph0" class="graph" transform="scale(1 1) rotate(0) translate(4 494)">
<title>model</title>
<polygon fill="white" stroke="transparent" points="-4,4 -4,-494 220,-494 220,4 -4,4"/>
<!-- 0 -->
<g id="node1" class="node">
<title>0</title>
<polygon fill="lightyellow" stroke="transparent" points="178,-490 38,-490 38,-458 178,-458 178,-490"/>
<polygon fill="none" stroke="black" points="38,-458 38,-490 100,-490 100,-458 38,-458"/>
<text text-anchor="start" x="43" y="-477" font-family="Linux libertine" font-size="10.00">input&#45;tensor</text>
<text text-anchor="start" x="52" y="-466" font-family="Linux libertine" font-size="10.00">depth:0</text>
<polygon fill="none" stroke="black" points="100,-458 100,-490 178,-490 178,-458 100,-458"/>
<text text-anchor="start" x="105" y="-471.5" font-family="Linux libertine" font-size="10.00">(1, 1, 321, 481)</text>
</g>
<!-- 1 -->
<g id="node2" class="node">
<title>1</title>
<polygon fill="#c1ffc1" stroke="transparent" points="195,-422 21,-422 21,-380 195,-380 195,-422"/>
<polygon fill="none" stroke="black" points="21,-380 21,-422 65,-422 65,-380 21,-380"/>
<text text-anchor="start" x="26.5" y="-404" font-family="Linux libertine" font-size="10.00">Conv2d</text>
<text text-anchor="start" x="26" y="-393" font-family="Linux libertine" font-size="10.00">depth:1</text>
<polygon fill="none" stroke="black" points="65,-401 65,-422 109,-422 109,-401 65,-401"/>
<text text-anchor="start" x="74.5" y="-409" font-family="Linux libertine" font-size="10.00">input:</text>
<polygon fill="none" stroke="black" points="109,-401 109,-422 195,-422 195,-401 109,-401"/>
<text text-anchor="start" x="116.5" y="-409" font-family="Linux libertine" font-size="10.00">(1, 1, 321, 481) </text>
<polygon fill="none" stroke="black" points="65,-380 65,-401 109,-401 109,-380 65,-380"/>
<text text-anchor="start" x="70" y="-388" font-family="Linux libertine" font-size="10.00">output: </text>
<polygon fill="none" stroke="black" points="109,-380 109,-401 195,-401 195,-380 109,-380"/>
<text text-anchor="start" x="114" y="-388" font-family="Linux libertine" font-size="10.00">(1, 64, 321, 481) </text>
</g>
<!-- 0&#45;&gt;1 -->
<g id="edge1" class="edge">
<title>0&#45;&gt;1</title>
<path fill="none" stroke="black" d="M108,-457.94C108,-450.45 108,-441.12 108,-432.24"/>
<polygon fill="black" stroke="black" points="111.5,-432.16 108,-422.16 104.5,-432.16 111.5,-432.16"/>
</g>
<!-- 2 -->
<g id="node3" class="node">
<title>2</title>
<polygon fill="#c1ffc1" stroke="transparent" points="195,-344 21,-344 21,-302 195,-302 195,-344"/>
<polygon fill="none" stroke="black" points="21,-302 21,-344 65,-344 65,-302 21,-302"/>
<text text-anchor="start" x="31" y="-326" font-family="Linux libertine" font-size="10.00">ReLU</text>
<text text-anchor="start" x="26" y="-315" font-family="Linux libertine" font-size="10.00">depth:1</text>
<polygon fill="none" stroke="black" points="65,-323 65,-344 109,-344 109,-323 65,-323"/>
<text text-anchor="start" x="74.5" y="-331" font-family="Linux libertine" font-size="10.00">input:</text>
<polygon fill="none" stroke="black" points="109,-323 109,-344 195,-344 195,-323 109,-323"/>
<text text-anchor="start" x="114" y="-331" font-family="Linux libertine" font-size="10.00">(1, 64, 321, 481) </text>
<polygon fill="none" stroke="black" points="65,-302 65,-323 109,-323 109,-302 65,-302"/>
<text text-anchor="start" x="70" y="-310" font-family="Linux libertine" font-size="10.00">output: </text>
<polygon fill="none" stroke="black" points="109,-302 109,-323 195,-323 195,-302 109,-302"/>
<text text-anchor="start" x="114" y="-310" font-family="Linux libertine" font-size="10.00">(1, 64, 321, 481) </text>
</g>
<!-- 1&#45;&gt;2 -->
<g id="edge2" class="edge">
<title>1&#45;&gt;2</title>
<path fill="none" stroke="black" d="M108,-379.63C108,-371.82 108,-362.73 108,-354.18"/>
<polygon fill="black" stroke="black" points="111.5,-354.16 108,-344.16 104.5,-354.16 111.5,-354.16"/>
</g>
<!-- 3 -->
<g id="node4" class="node">
<title>3</title>
<polygon fill="#c1ffc1" stroke="transparent" points="195,-266 21,-266 21,-224 195,-224 195,-266"/>
<polygon fill="none" stroke="black" points="21,-224 21,-266 65,-266 65,-224 21,-224"/>
<text text-anchor="start" x="26.5" y="-248" font-family="Linux libertine" font-size="10.00">Conv2d</text>
<text text-anchor="start" x="26" y="-237" font-family="Linux libertine" font-size="10.00">depth:1</text>
<polygon fill="none" stroke="black" points="65,-245 65,-266 109,-266 109,-245 65,-245"/>
<text text-anchor="start" x="74.5" y="-253" font-family="Linux libertine" font-size="10.00">input:</text>
<polygon fill="none" stroke="black" points="109,-245 109,-266 195,-266 195,-245 109,-245"/>
<text text-anchor="start" x="114" y="-253" font-family="Linux libertine" font-size="10.00">(1, 64, 321, 481) </text>
<polygon fill="none" stroke="black" points="65,-224 65,-245 109,-245 109,-224 65,-224"/>
<text text-anchor="start" x="70" y="-232" font-family="Linux libertine" font-size="10.00">output: </text>
<polygon fill="none" stroke="black" points="109,-224 109,-245 195,-245 195,-224 109,-224"/>
<text text-anchor="start" x="114" y="-232" font-family="Linux libertine" font-size="10.00">(1, 64, 321, 481) </text>
</g>
<!-- 2&#45;&gt;3 -->
<g id="edge3" class="edge">
<title>2&#45;&gt;3</title>
<path fill="none" stroke="black" d="M108,-301.63C108,-293.82 108,-284.73 108,-276.18"/>
<polygon fill="black" stroke="black" points="111.5,-276.16 108,-266.16 104.5,-276.16 111.5,-276.16"/>
</g>
<!-- 4 -->
<g id="node5" class="node">
<title>4</title>
<polygon fill="#c1ffc1" stroke="transparent" points="195,-188 21,-188 21,-146 195,-146 195,-188"/>
<polygon fill="none" stroke="black" points="21,-146 21,-188 65,-188 65,-146 21,-146"/>
<text text-anchor="start" x="31" y="-170" font-family="Linux libertine" font-size="10.00">ReLU</text>
<text text-anchor="start" x="26" y="-159" font-family="Linux libertine" font-size="10.00">depth:1</text>
<polygon fill="none" stroke="black" points="65,-167 65,-188 109,-188 109,-167 65,-167"/>
<text text-anchor="start" x="74.5" y="-175" font-family="Linux libertine" font-size="10.00">input:</text>
<polygon fill="none" stroke="black" points="109,-167 109,-188 195,-188 195,-167 109,-167"/>
<text text-anchor="start" x="114" y="-175" font-family="Linux libertine" font-size="10.00">(1, 64, 321, 481) </text>
<polygon fill="none" stroke="black" points="65,-146 65,-167 109,-167 109,-146 65,-146"/>
<text text-anchor="start" x="70" y="-154" font-family="Linux libertine" font-size="10.00">output: </text>
<polygon fill="none" stroke="black" points="109,-146 109,-167 195,-167 195,-146 109,-146"/>
<text text-anchor="start" x="114" y="-154" font-family="Linux libertine" font-size="10.00">(1, 64, 321, 481) </text>
</g>
<!-- 3&#45;&gt;4 -->
<g id="edge4" class="edge">
<title>3&#45;&gt;4</title>
<path fill="none" stroke="black" d="M108,-223.63C108,-215.82 108,-206.73 108,-198.18"/>
<polygon fill="black" stroke="black" points="111.5,-198.16 108,-188.16 104.5,-198.16 111.5,-198.16"/>
</g>
<!-- 5 -->
<g id="node6" class="node">
<title>5</title>
<polygon fill="#c1ffc1" stroke="transparent" points="216,-110 0,-110 0,-68 216,-68 216,-110"/>
<polygon fill="none" stroke="black" points="0,-68 0,-110 86,-110 86,-68 0,-68"/>
<text text-anchor="start" x="5" y="-92" font-family="Linux libertine" font-size="10.00">ConvTranspose2d</text>
<text text-anchor="start" x="26" y="-81" font-family="Linux libertine" font-size="10.00">depth:1</text>
<polygon fill="none" stroke="black" points="86,-89 86,-110 130,-110 130,-89 86,-89"/>
<text text-anchor="start" x="95.5" y="-97" font-family="Linux libertine" font-size="10.00">input:</text>
<polygon fill="none" stroke="black" points="130,-89 130,-110 216,-110 216,-89 130,-89"/>
<text text-anchor="start" x="135" y="-97" font-family="Linux libertine" font-size="10.00">(1, 64, 321, 481) </text>
<polygon fill="none" stroke="black" points="86,-68 86,-89 130,-89 130,-68 86,-68"/>
<text text-anchor="start" x="91" y="-76" font-family="Linux libertine" font-size="10.00">output: </text>
<polygon fill="none" stroke="black" points="130,-68 130,-89 216,-89 216,-68 130,-68"/>
<text text-anchor="start" x="137.5" y="-76" font-family="Linux libertine" font-size="10.00">(1, 1, 642, 962) </text>
</g>
<!-- 4&#45;&gt;5 -->
<g id="edge5" class="edge">
<title>4&#45;&gt;5</title>
<path fill="none" stroke="black" d="M108,-145.63C108,-137.82 108,-128.73 108,-120.18"/>
<polygon fill="black" stroke="black" points="111.5,-120.16 108,-110.16 104.5,-120.16 111.5,-120.16"/>
</g>
<!-- 6 -->
<g id="node7" class="node">
<title>6</title>
<polygon fill="lightyellow" stroke="transparent" points="181,-32 35,-32 35,0 181,0 181,-32"/>
<polygon fill="none" stroke="black" points="35,0 35,-32 103,-32 103,0 35,0"/>
<text text-anchor="start" x="40" y="-19" font-family="Linux libertine" font-size="10.00">output&#45;tensor</text>
<text text-anchor="start" x="52" y="-8" font-family="Linux libertine" font-size="10.00">depth:0</text>
<polygon fill="none" stroke="black" points="103,0 103,-32 181,-32 181,0 103,0"/>
<text text-anchor="start" x="108" y="-13.5" font-family="Linux libertine" font-size="10.00">(1, 1, 642, 962)</text>
</g>
<!-- 5&#45;&gt;6 -->
<g id="edge6" class="edge">
<title>5&#45;&gt;6</title>
<path fill="none" stroke="black" d="M108,-67.84C108,-59.89 108,-50.66 108,-42.26"/>
<polygon fill="black" stroke="black" points="111.5,-42.24 108,-32.24 104.5,-42.24 111.5,-42.24"/>
</g>
</g>
</svg>
