<?xml version="1.0" encoding="UTF-8" standalone="no"?>
<!DOCTYPE svg PUBLIC "-//W3C//DTD SVG 1.1//EN"
 "http://www.w3.org/Graphics/SVG/1.1/DTD/svg11.dtd">
<!-- Generated by graphviz version 2.50.0 (0)
 -->
<!-- Title: model Pages: 1 -->
<svg width="198pt" height="732pt"
 viewBox="0.00 0.00 198.00 732.00" xmlns="http://www.w3.org/2000/svg" xmlns:xlink="http://www.w3.org/1999/xlink">
<g id="graph0" class="graph" transform="scale(1 1) rotate(0) translate(4 728)">
<title>model</title>
<polygon fill="white" stroke="transparent" points="-4,4 -4,-728 194,-728 194,4 -4,4"/>
<!-- 0 -->
<g id="node1" class="node">
<title>0</title>
<polygon fill="lightyellow" stroke="transparent" points="165,-724 25,-724 25,-692 165,-692 165,-724"/>
<polygon fill="none" stroke="black" points="25,-692 25,-724 87,-724 87,-692 25,-692"/>
<text text-anchor="start" x="30" y="-711" font-family="Linux libertine" font-size="10.00">input&#45;tensor</text>
<text text-anchor="start" x="39" y="-700" font-family="Linux libertine" font-size="10.00">depth:0</text>
<polygon fill="none" stroke="black" points="87,-692 87,-724 165,-724 165,-692 87,-692"/>
<text text-anchor="start" x="92" y="-705.5" font-family="Linux libertine" font-size="10.00">(1, 1, 321, 481)</text>
</g>
<!-- 1 -->
<g id="node2" class="node">
<title>1</title>
<polygon fill="#c1ffc1" stroke="transparent" points="182,-656 8,-656 8,-614 182,-614 182,-656"/>
<polygon fill="none" stroke="black" points="8,-614 8,-656 52,-656 52,-614 8,-614"/>
<text text-anchor="start" x="13.5" y="-638" font-family="Linux libertine" font-size="10.00">Conv2d</text>
<text text-anchor="start" x="13" y="-627" font-family="Linux libertine" font-size="10.00">depth:1</text>
<polygon fill="none" stroke="black" points="52,-635 52,-656 96,-656 96,-635 52,-635"/>
<text text-anchor="start" x="61.5" y="-643" font-family="Linux libertine" font-size="10.00">input:</text>
<polygon fill="none" stroke="black" points="96,-635 96,-656 182,-656 182,-635 96,-635"/>
<text text-anchor="start" x="103.5" y="-643" font-family="Linux libertine" font-size="10.00">(1, 1, 321, 481) </text>
<polygon fill="none" stroke="black" points="52,-614 52,-635 96,-635 96,-614 52,-614"/>
<text text-anchor="start" x="57" y="-622" font-family="Linux libertine" font-size="10.00">output: </text>
<polygon fill="none" stroke="black" points="96,-614 96,-635 182,-635 182,-614 96,-614"/>
<text text-anchor="start" x="101" y="-622" font-family="Linux libertine" font-size="10.00">(1, 64, 321, 481) </text>
</g>
<!-- 0&#45;&gt;1 -->
<g id="edge1" class="edge">
<title>0&#45;&gt;1</title>
<path fill="none" stroke="black" d="M95,-691.94C95,-684.45 95,-675.12 95,-666.24"/>
<polygon fill="black" stroke="black" points="98.5,-666.16 95,-656.16 91.5,-666.16 98.5,-666.16"/>
</g>
<!-- 2 -->
<g id="node3" class="node">
<title>2</title>
<polygon fill="#c1ffc1" stroke="transparent" points="182,-578 8,-578 8,-536 182,-536 182,-578"/>
<polygon fill="none" stroke="black" points="8,-536 8,-578 52,-578 52,-536 8,-536"/>
<text text-anchor="start" x="18" y="-560" font-family="Linux libertine" font-size="10.00">ReLU</text>
<text text-anchor="start" x="13" y="-549" font-family="Linux libertine" font-size="10.00">depth:1</text>
<polygon fill="none" stroke="black" points="52,-557 52,-578 96,-578 96,-557 52,-557"/>
<text text-anchor="start" x="61.5" y="-565" font-family="Linux libertine" font-size="10.00">input:</text>
<polygon fill="none" stroke="black" points="96,-557 96,-578 182,-578 182,-557 96,-557"/>
<text text-anchor="start" x="101" y="-565" font-family="Linux libertine" font-size="10.00">(1, 64, 321, 481) </text>
<polygon fill="none" stroke="black" points="52,-536 52,-557 96,-557 96,-536 52,-536"/>
<text text-anchor="start" x="57" y="-544" font-family="Linux libertine" font-size="10.00">output: </text>
<polygon fill="none" stroke="black" points="96,-536 96,-557 182,-557 182,-536 96,-536"/>
<text text-anchor="start" x="101" y="-544" font-family="Linux libertine" font-size="10.00">(1, 64, 321, 481) </text>
</g>
<!-- 1&#45;&gt;2 -->
<g id="edge2" class="edge">
<title>1&#45;&gt;2</title>
<path fill="none" stroke="black" d="M95,-613.63C95,-605.82 95,-596.73 95,-588.18"/>
<polygon fill="black" stroke="black" points="98.5,-588.16 95,-578.16 91.5,-588.16 98.5,-588.16"/>
</g>
<!-- 3 -->
<g id="node4" class="node">
<title>3</title>
<polygon fill="#c1ffc1" stroke="transparent" points="182,-500 8,-500 8,-458 182,-458 182,-500"/>
<polygon fill="none" stroke="black" points="8,-458 8,-500 52,-500 52,-458 8,-458"/>
<text text-anchor="start" x="13.5" y="-482" font-family="Linux libertine" font-size="10.00">Conv2d</text>
<text text-anchor="start" x="13" y="-471" font-family="Linux libertine" font-size="10.00">depth:1</text>
<polygon fill="none" stroke="black" points="52,-479 52,-500 96,-500 96,-479 52,-479"/>
<text text-anchor="start" x="61.5" y="-487" font-family="Linux libertine" font-size="10.00">input:</text>
<polygon fill="none" stroke="black" points="96,-479 96,-500 182,-500 182,-479 96,-479"/>
<text text-anchor="start" x="101" y="-487" font-family="Linux libertine" font-size="10.00">(1, 64, 321, 481) </text>
<polygon fill="none" stroke="black" points="52,-458 52,-479 96,-479 96,-458 52,-458"/>
<text text-anchor="start" x="57" y="-466" font-family="Linux libertine" font-size="10.00">output: </text>
<polygon fill="none" stroke="black" points="96,-458 96,-479 182,-479 182,-458 96,-458"/>
<text text-anchor="start" x="101" y="-466" font-family="Linux libertine" font-size="10.00">(1, 32, 321, 481) </text>
</g>
<!-- 2&#45;&gt;3 -->
<g id="edge3" class="edge">
<title>2&#45;&gt;3</title>
<path fill="none" stroke="black" d="M95,-535.63C95,-527.82 95,-518.73 95,-510.18"/>
<polygon fill="black" stroke="black" points="98.5,-510.16 95,-500.16 91.5,-510.16 98.5,-510.16"/>
</g>
<!-- 4 -->
<g id="node5" class="node">
<title>4</title>
<polygon fill="#c1ffc1" stroke="transparent" points="182,-422 8,-422 8,-380 182,-380 182,-422"/>
<polygon fill="none" stroke="black" points="8,-380 8,-422 52,-422 52,-380 8,-380"/>
<text text-anchor="start" x="18" y="-404" font-family="Linux libertine" font-size="10.00">ReLU</text>
<text text-anchor="start" x="13" y="-393" font-family="Linux libertine" font-size="10.00">depth:1</text>
<polygon fill="none" stroke="black" points="52,-401 52,-422 96,-422 96,-401 52,-401"/>
<text text-anchor="start" x="61.5" y="-409" font-family="Linux libertine" font-size="10.00">input:</text>
<polygon fill="none" stroke="black" points="96,-401 96,-422 182,-422 182,-401 96,-401"/>
<text text-anchor="start" x="101" y="-409" font-family="Linux libertine" font-size="10.00">(1, 32, 321, 481) </text>
<polygon fill="none" stroke="black" points="52,-380 52,-401 96,-401 96,-380 52,-380"/>
<text text-anchor="start" x="57" y="-388" font-family="Linux libertine" font-size="10.00">output: </text>
<polygon fill="none" stroke="black" points="96,-380 96,-401 182,-401 182,-380 96,-380"/>
<text text-anchor="start" x="101" y="-388" font-family="Linux libertine" font-size="10.00">(1, 32, 321, 481) </text>
</g>
<!-- 3&#45;&gt;4 -->
<g id="edge4" class="edge">
<title>3&#45;&gt;4</title>
<path fill="none" stroke="black" d="M95,-457.63C95,-449.82 95,-440.73 95,-432.18"/>
<polygon fill="black" stroke="black" points="98.5,-432.16 95,-422.16 91.5,-432.16 98.5,-432.16"/>
</g>
<!-- 5 -->
<g id="node6" class="node">
<title>5</title>
<polygon fill="#c1ffc1" stroke="transparent" points="182,-344 8,-344 8,-302 182,-302 182,-344"/>
<polygon fill="none" stroke="black" points="8,-302 8,-344 52,-344 52,-302 8,-302"/>
<text text-anchor="start" x="13.5" y="-326" font-family="Linux libertine" font-size="10.00">Conv2d</text>
<text text-anchor="start" x="13" y="-315" font-family="Linux libertine" font-size="10.00">depth:1</text>
<polygon fill="none" stroke="black" points="52,-323 52,-344 96,-344 96,-323 52,-323"/>
<text text-anchor="start" x="61.5" y="-331" font-family="Linux libertine" font-size="10.00">input:</text>
<polygon fill="none" stroke="black" points="96,-323 96,-344 182,-344 182,-323 96,-323"/>
<text text-anchor="start" x="101" y="-331" font-family="Linux libertine" font-size="10.00">(1, 32, 321, 481) </text>
<polygon fill="none" stroke="black" points="52,-302 52,-323 96,-323 96,-302 52,-302"/>
<text text-anchor="start" x="57" y="-310" font-family="Linux libertine" font-size="10.00">output: </text>
<polygon fill="none" stroke="black" points="96,-302 96,-323 182,-323 182,-302 96,-302"/>
<text text-anchor="start" x="101" y="-310" font-family="Linux libertine" font-size="10.00">(1, 64, 321, 481) </text>
</g>
<!-- 4&#45;&gt;5 -->
<g id="edge5" class="edge">
<title>4&#45;&gt;5</title>
<path fill="none" stroke="black" d="M95,-379.63C95,-371.82 95,-362.73 95,-354.18"/>
<polygon fill="black" stroke="black" points="98.5,-354.16 95,-344.16 91.5,-354.16 98.5,-354.16"/>
</g>
<!-- 6 -->
<g id="node7" class="node">
<title>6</title>
<polygon fill="#c1ffc1" stroke="transparent" points="182,-266 8,-266 8,-224 182,-224 182,-266"/>
<polygon fill="none" stroke="black" points="8,-224 8,-266 52,-266 52,-224 8,-224"/>
<text text-anchor="start" x="18" y="-248" font-family="Linux libertine" font-size="10.00">ReLU</text>
<text text-anchor="start" x="13" y="-237" font-family="Linux libertine" font-size="10.00">depth:1</text>
<polygon fill="none" stroke="black" points="52,-245 52,-266 96,-266 96,-245 52,-245"/>
<text text-anchor="start" x="61.5" y="-253" font-family="Linux libertine" font-size="10.00">input:</text>
<polygon fill="none" stroke="black" points="96,-245 96,-266 182,-266 182,-245 96,-245"/>
<text text-anchor="start" x="101" y="-253" font-family="Linux libertine" font-size="10.00">(1, 64, 321, 481) </text>
<polygon fill="none" stroke="black" points="52,-224 52,-245 96,-245 96,-224 52,-224"/>
<text text-anchor="start" x="57" y="-232" font-family="Linux libertine" font-size="10.00">output: </text>
<polygon fill="none" stroke="black" points="96,-224 96,-245 182,-245 182,-224 96,-224"/>
<text text-anchor="start" x="101" y="-232" font-family="Linux libertine" font-size="10.00">(1, 64, 321, 481) </text>
</g>
<!-- 5&#45;&gt;6 -->
<g id="edge6" class="edge">
<title>5&#45;&gt;6</title>
<path fill="none" stroke="black" d="M95,-301.63C95,-293.82 95,-284.73 95,-276.18"/>
<polygon fill="black" stroke="black" points="98.5,-276.16 95,-266.16 91.5,-276.16 98.5,-276.16"/>
</g>
<!-- 7 -->
<g id="node8" class="node">
<title>7</title>
<polygon fill="#c1ffc1" stroke="transparent" points="182,-188 8,-188 8,-146 182,-146 182,-188"/>
<polygon fill="none" stroke="black" points="8,-146 8,-188 52,-188 52,-146 8,-146"/>
<text text-anchor="start" x="13.5" y="-170" font-family="Linux libertine" font-size="10.00">Conv2d</text>
<text text-anchor="start" x="13" y="-159" font-family="Linux libertine" font-size="10.00">depth:1</text>
<polygon fill="none" stroke="black" points="52,-167 52,-188 96,-188 96,-167 52,-167"/>
<text text-anchor="start" x="61.5" y="-175" font-family="Linux libertine" font-size="10.00">input:</text>
<polygon fill="none" stroke="black" points="96,-167 96,-188 182,-188 182,-167 96,-167"/>
<text text-anchor="start" x="101" y="-175" font-family="Linux libertine" font-size="10.00">(1, 64, 321, 481) </text>
<polygon fill="none" stroke="black" points="52,-146 52,-167 96,-167 96,-146 52,-146"/>
<text text-anchor="start" x="57" y="-154" font-family="Linux libertine" font-size="10.00">output: </text>
<polygon fill="none" stroke="black" points="96,-146 96,-167 182,-167 182,-146 96,-146"/>
<text text-anchor="start" x="103.5" y="-154" font-family="Linux libertine" font-size="10.00">(1, 9, 321, 481) </text>
</g>
<!-- 6&#45;&gt;7 -->
<g id="edge7" class="edge">
<title>6&#45;&gt;7</title>
<path fill="none" stroke="black" d="M95,-223.63C95,-215.82 95,-206.73 95,-198.18"/>
<polygon fill="black" stroke="black" points="98.5,-198.16 95,-188.16 91.5,-198.16 98.5,-198.16"/>
</g>
<!-- 8 -->
<g id="node9" class="node">
<title>8</title>
<polygon fill="#c1ffc1" stroke="transparent" points="190,-110 0,-110 0,-68 190,-68 190,-110"/>
<polygon fill="none" stroke="black" points="0,-68 0,-110 60,-110 60,-68 0,-68"/>
<text text-anchor="start" x="5" y="-92" font-family="Linux libertine" font-size="10.00">PixelShuffle</text>
<text text-anchor="start" x="13" y="-81" font-family="Linux libertine" font-size="10.00">depth:1</text>
<polygon fill="none" stroke="black" points="60,-89 60,-110 104,-110 104,-89 60,-89"/>
<text text-anchor="start" x="69.5" y="-97" font-family="Linux libertine" font-size="10.00">input:</text>
<polygon fill="none" stroke="black" points="104,-89 104,-110 190,-110 190,-89 104,-89"/>
<text text-anchor="start" x="111.5" y="-97" font-family="Linux libertine" font-size="10.00">(1, 9, 321, 481) </text>
<polygon fill="none" stroke="black" points="60,-68 60,-89 104,-89 104,-68 60,-68"/>
<text text-anchor="start" x="65" y="-76" font-family="Linux libertine" font-size="10.00">output: </text>
<polygon fill="none" stroke="black" points="104,-68 104,-89 190,-89 190,-68 104,-68"/>
<text text-anchor="start" x="109" y="-76" font-family="Linux libertine" font-size="10.00">(1, 1, 963, 1443) </text>
</g>
<!-- 7&#45;&gt;8 -->
<g id="edge8" class="edge">
<title>7&#45;&gt;8</title>
<path fill="none" stroke="black" d="M95,-145.63C95,-137.82 95,-128.73 95,-120.18"/>
<polygon fill="black" stroke="black" points="98.5,-120.16 95,-110.16 91.5,-120.16 98.5,-120.16"/>
</g>
<!-- 9 -->
<g id="node10" class="node">
<title>9</title>
<polygon fill="lightyellow" stroke="transparent" points="170.5,-32 19.5,-32 19.5,0 170.5,0 170.5,-32"/>
<polygon fill="none" stroke="black" points="20,0 20,-32 88,-32 88,0 20,0"/>
<text text-anchor="start" x="25" y="-19" font-family="Linux libertine" font-size="10.00">output&#45;tensor</text>
<text text-anchor="start" x="37" y="-8" font-family="Linux libertine" font-size="10.00">depth:0</text>
<polygon fill="none" stroke="black" points="88,0 88,-32 171,-32 171,0 88,0"/>
<text text-anchor="start" x="93" y="-13.5" font-family="Linux libertine" font-size="10.00">(1, 1, 963, 1443)</text>
</g>
<!-- 8&#45;&gt;9 -->
<g id="edge9" class="edge">
<title>8&#45;&gt;9</title>
<path fill="none" stroke="black" d="M95,-67.84C95,-59.89 95,-50.66 95,-42.26"/>
<polygon fill="black" stroke="black" points="98.5,-42.24 95,-32.24 91.5,-42.24 98.5,-42.24"/>
</g>
</g>
</svg>
