<?xml version="1.0" encoding="UTF-8" standalone="no"?>
<!DOCTYPE svg PUBLIC "-//W3C//DTD SVG 1.1//EN"
 "http://www.w3.org/Graphics/SVG/1.1/DTD/svg11.dtd">
<!-- Generated by graphviz version 2.50.0 (0)
 -->
<!-- Title: model Pages: 1 -->
<svg width="198pt" height="864pt"
 viewBox="0.00 0.00 197.51 864.00" xmlns="http://www.w3.org/2000/svg" xmlns:xlink="http://www.w3.org/1999/xlink">
<g id="graph0" class="graph" transform="scale(0.97 0.97) rotate(0) translate(4 884)">
<title>model</title>
<polygon fill="white" stroke="transparent" points="-4,4 -4,-884 199,-884 199,4 -4,4"/>
<!-- 0 -->
<g id="node1" class="node">
<title>0</title>
<polygon fill="lightyellow" stroke="transparent" points="167.5,-880 27.5,-880 27.5,-848 167.5,-848 167.5,-880"/>
<polygon fill="none" stroke="black" points="27.5,-848 27.5,-880 89.5,-880 89.5,-848 27.5,-848"/>
<text text-anchor="start" x="32.5" y="-867" font-family="Linux libertine" font-size="10.00">input&#45;tensor</text>
<text text-anchor="start" x="41.5" y="-856" font-family="Linux libertine" font-size="10.00">depth:0</text>
<polygon fill="none" stroke="black" points="89.5,-848 89.5,-880 167.5,-880 167.5,-848 89.5,-848"/>
<text text-anchor="start" x="94.5" y="-861.5" font-family="Linux libertine" font-size="10.00">(1, 1, 321, 481)</text>
</g>
<!-- 1 -->
<g id="node2" class="node">
<title>1</title>
<polygon fill="#c1ffc1" stroke="transparent" points="184.5,-812 10.5,-812 10.5,-770 184.5,-770 184.5,-812"/>
<polygon fill="none" stroke="black" points="10.5,-770 10.5,-812 54.5,-812 54.5,-770 10.5,-770"/>
<text text-anchor="start" x="16" y="-794" font-family="Linux libertine" font-size="10.00">Conv2d</text>
<text text-anchor="start" x="15.5" y="-783" font-family="Linux libertine" font-size="10.00">depth:1</text>
<polygon fill="none" stroke="black" points="54.5,-791 54.5,-812 98.5,-812 98.5,-791 54.5,-791"/>
<text text-anchor="start" x="64" y="-799" font-family="Linux libertine" font-size="10.00">input:</text>
<polygon fill="none" stroke="black" points="98.5,-791 98.5,-812 184.5,-812 184.5,-791 98.5,-791"/>
<text text-anchor="start" x="106" y="-799" font-family="Linux libertine" font-size="10.00">(1, 1, 321, 481) </text>
<polygon fill="none" stroke="black" points="54.5,-770 54.5,-791 98.5,-791 98.5,-770 54.5,-770"/>
<text text-anchor="start" x="59.5" y="-778" font-family="Linux libertine" font-size="10.00">output: </text>
<polygon fill="none" stroke="black" points="98.5,-770 98.5,-791 184.5,-791 184.5,-770 98.5,-770"/>
<text text-anchor="start" x="103.5" y="-778" font-family="Linux libertine" font-size="10.00">(1, 64, 321, 481) </text>
</g>
<!-- 0&#45;&gt;1 -->
<g id="edge1" class="edge">
<title>0&#45;&gt;1</title>
<path fill="none" stroke="black" d="M97.5,-847.94C97.5,-840.45 97.5,-831.12 97.5,-822.24"/>
<polygon fill="black" stroke="black" points="101,-822.16 97.5,-812.16 94,-822.16 101,-822.16"/>
</g>
<!-- 2 -->
<g id="node3" class="node">
<title>2</title>
<polygon fill="#c1ffc1" stroke="transparent" points="184.5,-734 10.5,-734 10.5,-692 184.5,-692 184.5,-734"/>
<polygon fill="none" stroke="black" points="10.5,-692 10.5,-734 54.5,-734 54.5,-692 10.5,-692"/>
<text text-anchor="start" x="20.5" y="-716" font-family="Linux libertine" font-size="10.00">ReLU</text>
<text text-anchor="start" x="15.5" y="-705" font-family="Linux libertine" font-size="10.00">depth:1</text>
<polygon fill="none" stroke="black" points="54.5,-713 54.5,-734 98.5,-734 98.5,-713 54.5,-713"/>
<text text-anchor="start" x="64" y="-721" font-family="Linux libertine" font-size="10.00">input:</text>
<polygon fill="none" stroke="black" points="98.5,-713 98.5,-734 184.5,-734 184.5,-713 98.5,-713"/>
<text text-anchor="start" x="103.5" y="-721" font-family="Linux libertine" font-size="10.00">(1, 64, 321, 481) </text>
<polygon fill="none" stroke="black" points="54.5,-692 54.5,-713 98.5,-713 98.5,-692 54.5,-692"/>
<text text-anchor="start" x="59.5" y="-700" font-family="Linux libertine" font-size="10.00">output: </text>
<polygon fill="none" stroke="black" points="98.5,-692 98.5,-713 184.5,-713 184.5,-692 98.5,-692"/>
<text text-anchor="start" x="103.5" y="-700" font-family="Linux libertine" font-size="10.00">(1, 64, 321, 481) </text>
</g>
<!-- 1&#45;&gt;2 -->
<g id="edge2" class="edge">
<title>1&#45;&gt;2</title>
<path fill="none" stroke="black" d="M97.5,-769.63C97.5,-761.82 97.5,-752.73 97.5,-744.18"/>
<polygon fill="black" stroke="black" points="101,-744.16 97.5,-734.16 94,-744.16 101,-744.16"/>
</g>
<!-- 3 -->
<g id="node4" class="node">
<title>3</title>
<polygon fill="#c1ffc1" stroke="transparent" points="184.5,-656 10.5,-656 10.5,-614 184.5,-614 184.5,-656"/>
<polygon fill="none" stroke="black" points="10.5,-614 10.5,-656 54.5,-656 54.5,-614 10.5,-614"/>
<text text-anchor="start" x="16" y="-638" font-family="Linux libertine" font-size="10.00">Conv2d</text>
<text text-anchor="start" x="15.5" y="-627" font-family="Linux libertine" font-size="10.00">depth:1</text>
<polygon fill="none" stroke="black" points="54.5,-635 54.5,-656 98.5,-656 98.5,-635 54.5,-635"/>
<text text-anchor="start" x="64" y="-643" font-family="Linux libertine" font-size="10.00">input:</text>
<polygon fill="none" stroke="black" points="98.5,-635 98.5,-656 184.5,-656 184.5,-635 98.5,-635"/>
<text text-anchor="start" x="103.5" y="-643" font-family="Linux libertine" font-size="10.00">(1, 64, 321, 481) </text>
<polygon fill="none" stroke="black" points="54.5,-614 54.5,-635 98.5,-635 98.5,-614 54.5,-614"/>
<text text-anchor="start" x="59.5" y="-622" font-family="Linux libertine" font-size="10.00">output: </text>
<polygon fill="none" stroke="black" points="98.5,-614 98.5,-635 184.5,-635 184.5,-614 98.5,-614"/>
<text text-anchor="start" x="103.5" y="-622" font-family="Linux libertine" font-size="10.00">(1, 32, 321, 481) </text>
</g>
<!-- 2&#45;&gt;3 -->
<g id="edge3" class="edge">
<title>2&#45;&gt;3</title>
<path fill="none" stroke="black" d="M97.5,-691.63C97.5,-683.82 97.5,-674.73 97.5,-666.18"/>
<polygon fill="black" stroke="black" points="101,-666.16 97.5,-656.16 94,-666.16 101,-666.16"/>
</g>
<!-- 4 -->
<g id="node5" class="node">
<title>4</title>
<polygon fill="#c1ffc1" stroke="transparent" points="184.5,-578 10.5,-578 10.5,-536 184.5,-536 184.5,-578"/>
<polygon fill="none" stroke="black" points="10.5,-536 10.5,-578 54.5,-578 54.5,-536 10.5,-536"/>
<text text-anchor="start" x="20.5" y="-560" font-family="Linux libertine" font-size="10.00">ReLU</text>
<text text-anchor="start" x="15.5" y="-549" font-family="Linux libertine" font-size="10.00">depth:1</text>
<polygon fill="none" stroke="black" points="54.5,-557 54.5,-578 98.5,-578 98.5,-557 54.5,-557"/>
<text text-anchor="start" x="64" y="-565" font-family="Linux libertine" font-size="10.00">input:</text>
<polygon fill="none" stroke="black" points="98.5,-557 98.5,-578 184.5,-578 184.5,-557 98.5,-557"/>
<text text-anchor="start" x="103.5" y="-565" font-family="Linux libertine" font-size="10.00">(1, 32, 321, 481) </text>
<polygon fill="none" stroke="black" points="54.5,-536 54.5,-557 98.5,-557 98.5,-536 54.5,-536"/>
<text text-anchor="start" x="59.5" y="-544" font-family="Linux libertine" font-size="10.00">output: </text>
<polygon fill="none" stroke="black" points="98.5,-536 98.5,-557 184.5,-557 184.5,-536 98.5,-536"/>
<text text-anchor="start" x="103.5" y="-544" font-family="Linux libertine" font-size="10.00">(1, 32, 321, 481) </text>
</g>
<!-- 3&#45;&gt;4 -->
<g id="edge4" class="edge">
<title>3&#45;&gt;4</title>
<path fill="none" stroke="black" d="M97.5,-613.63C97.5,-605.82 97.5,-596.73 97.5,-588.18"/>
<polygon fill="black" stroke="black" points="101,-588.16 97.5,-578.16 94,-588.16 101,-588.16"/>
</g>
<!-- 5 -->
<g id="node6" class="node">
<title>5</title>
<polygon fill="#c1ffc1" stroke="transparent" points="184.5,-500 10.5,-500 10.5,-458 184.5,-458 184.5,-500"/>
<polygon fill="none" stroke="black" points="10.5,-458 10.5,-500 54.5,-500 54.5,-458 10.5,-458"/>
<text text-anchor="start" x="16" y="-482" font-family="Linux libertine" font-size="10.00">Conv2d</text>
<text text-anchor="start" x="15.5" y="-471" font-family="Linux libertine" font-size="10.00">depth:1</text>
<polygon fill="none" stroke="black" points="54.5,-479 54.5,-500 98.5,-500 98.5,-479 54.5,-479"/>
<text text-anchor="start" x="64" y="-487" font-family="Linux libertine" font-size="10.00">input:</text>
<polygon fill="none" stroke="black" points="98.5,-479 98.5,-500 184.5,-500 184.5,-479 98.5,-479"/>
<text text-anchor="start" x="103.5" y="-487" font-family="Linux libertine" font-size="10.00">(1, 32, 321, 481) </text>
<polygon fill="none" stroke="black" points="54.5,-458 54.5,-479 98.5,-479 98.5,-458 54.5,-458"/>
<text text-anchor="start" x="59.5" y="-466" font-family="Linux libertine" font-size="10.00">output: </text>
<polygon fill="none" stroke="black" points="98.5,-458 98.5,-479 184.5,-479 184.5,-458 98.5,-458"/>
<text text-anchor="start" x="103.5" y="-466" font-family="Linux libertine" font-size="10.00">(1, 64, 321, 481) </text>
</g>
<!-- 4&#45;&gt;5 -->
<g id="edge5" class="edge">
<title>4&#45;&gt;5</title>
<path fill="none" stroke="black" d="M97.5,-535.63C97.5,-527.82 97.5,-518.73 97.5,-510.18"/>
<polygon fill="black" stroke="black" points="101,-510.16 97.5,-500.16 94,-510.16 101,-510.16"/>
</g>
<!-- 6 -->
<g id="node7" class="node">
<title>6</title>
<polygon fill="#c1ffc1" stroke="transparent" points="184.5,-422 10.5,-422 10.5,-380 184.5,-380 184.5,-422"/>
<polygon fill="none" stroke="black" points="10.5,-380 10.5,-422 54.5,-422 54.5,-380 10.5,-380"/>
<text text-anchor="start" x="20.5" y="-404" font-family="Linux libertine" font-size="10.00">ReLU</text>
<text text-anchor="start" x="15.5" y="-393" font-family="Linux libertine" font-size="10.00">depth:1</text>
<polygon fill="none" stroke="black" points="54.5,-401 54.5,-422 98.5,-422 98.5,-401 54.5,-401"/>
<text text-anchor="start" x="64" y="-409" font-family="Linux libertine" font-size="10.00">input:</text>
<polygon fill="none" stroke="black" points="98.5,-401 98.5,-422 184.5,-422 184.5,-401 98.5,-401"/>
<text text-anchor="start" x="103.5" y="-409" font-family="Linux libertine" font-size="10.00">(1, 64, 321, 481) </text>
<polygon fill="none" stroke="black" points="54.5,-380 54.5,-401 98.5,-401 98.5,-380 54.5,-380"/>
<text text-anchor="start" x="59.5" y="-388" font-family="Linux libertine" font-size="10.00">output: </text>
<polygon fill="none" stroke="black" points="98.5,-380 98.5,-401 184.5,-401 184.5,-380 98.5,-380"/>
<text text-anchor="start" x="103.5" y="-388" font-family="Linux libertine" font-size="10.00">(1, 64, 321, 481) </text>
</g>
<!-- 5&#45;&gt;6 -->
<g id="edge6" class="edge">
<title>5&#45;&gt;6</title>
<path fill="none" stroke="black" d="M97.5,-457.63C97.5,-449.82 97.5,-440.73 97.5,-432.18"/>
<polygon fill="black" stroke="black" points="101,-432.16 97.5,-422.16 94,-432.16 101,-432.16"/>
</g>
<!-- 7 -->
<g id="node8" class="node">
<title>7</title>
<polygon fill="#c1ffc1" stroke="transparent" points="184.5,-344 10.5,-344 10.5,-302 184.5,-302 184.5,-344"/>
<polygon fill="none" stroke="black" points="10.5,-302 10.5,-344 54.5,-344 54.5,-302 10.5,-302"/>
<text text-anchor="start" x="16" y="-326" font-family="Linux libertine" font-size="10.00">Conv2d</text>
<text text-anchor="start" x="15.5" y="-315" font-family="Linux libertine" font-size="10.00">depth:1</text>
<polygon fill="none" stroke="black" points="54.5,-323 54.5,-344 98.5,-344 98.5,-323 54.5,-323"/>
<text text-anchor="start" x="64" y="-331" font-family="Linux libertine" font-size="10.00">input:</text>
<polygon fill="none" stroke="black" points="98.5,-323 98.5,-344 184.5,-344 184.5,-323 98.5,-323"/>
<text text-anchor="start" x="103.5" y="-331" font-family="Linux libertine" font-size="10.00">(1, 64, 321, 481) </text>
<polygon fill="none" stroke="black" points="54.5,-302 54.5,-323 98.5,-323 98.5,-302 54.5,-302"/>
<text text-anchor="start" x="59.5" y="-310" font-family="Linux libertine" font-size="10.00">output: </text>
<polygon fill="none" stroke="black" points="98.5,-302 98.5,-323 184.5,-323 184.5,-302 98.5,-302"/>
<text text-anchor="start" x="106" y="-310" font-family="Linux libertine" font-size="10.00">(1, 9, 321, 481) </text>
</g>
<!-- 6&#45;&gt;7 -->
<g id="edge7" class="edge">
<title>6&#45;&gt;7</title>
<path fill="none" stroke="black" d="M97.5,-379.63C97.5,-371.82 97.5,-362.73 97.5,-354.18"/>
<polygon fill="black" stroke="black" points="101,-354.16 97.5,-344.16 94,-354.16 101,-354.16"/>
</g>
<!-- 8 -->
<g id="node9" class="node">
<title>8</title>
<polygon fill="aliceblue" stroke="transparent" points="194,-266 1,-266 1,-224 194,-224 194,-266"/>
<polygon fill="none" stroke="black" points="1.5,-224 1.5,-266 46.5,-266 46.5,-224 1.5,-224"/>
<text text-anchor="start" x="6.5" y="-248" font-family="Linux libertine" font-size="10.00">reshape</text>
<text text-anchor="start" x="7" y="-237" font-family="Linux libertine" font-size="10.00">depth:1</text>
<polygon fill="none" stroke="black" points="46.5,-245 46.5,-266 90.5,-266 90.5,-245 46.5,-245"/>
<text text-anchor="start" x="56" y="-253" font-family="Linux libertine" font-size="10.00">input:</text>
<polygon fill="none" stroke="black" points="90.5,-245 90.5,-266 194.5,-266 194.5,-245 90.5,-245"/>
<text text-anchor="start" x="107" y="-253" font-family="Linux libertine" font-size="10.00">(1, 9, 321, 481) </text>
<polygon fill="none" stroke="black" points="46.5,-224 46.5,-245 90.5,-245 90.5,-224 46.5,-224"/>
<text text-anchor="start" x="51.5" y="-232" font-family="Linux libertine" font-size="10.00">output: </text>
<polygon fill="none" stroke="black" points="90.5,-224 90.5,-245 194.5,-245 194.5,-224 90.5,-224"/>
<text text-anchor="start" x="95.5" y="-232" font-family="Linux libertine" font-size="10.00">(1, 1, 3, 3, 321, 481) </text>
</g>
<!-- 7&#45;&gt;8 -->
<g id="edge8" class="edge">
<title>7&#45;&gt;8</title>
<path fill="none" stroke="black" d="M97.5,-301.63C97.5,-293.82 97.5,-284.73 97.5,-276.18"/>
<polygon fill="black" stroke="black" points="101,-276.16 97.5,-266.16 94,-276.16 101,-276.16"/>
</g>
<!-- 9 -->
<g id="node10" class="node">
<title>9</title>
<polygon fill="aliceblue" stroke="transparent" points="195,-188 0,-188 0,-146 195,-146 195,-188"/>
<polygon fill="none" stroke="black" points="0.5,-146 0.5,-188 47.5,-188 47.5,-146 0.5,-146"/>
<text text-anchor="start" x="5.5" y="-170" font-family="Linux libertine" font-size="10.00">permute</text>
<text text-anchor="start" x="7" y="-159" font-family="Linux libertine" font-size="10.00">depth:1</text>
<polygon fill="none" stroke="black" points="47.5,-167 47.5,-188 91.5,-188 91.5,-167 47.5,-167"/>
<text text-anchor="start" x="57" y="-175" font-family="Linux libertine" font-size="10.00">input:</text>
<polygon fill="none" stroke="black" points="91.5,-167 91.5,-188 195.5,-188 195.5,-167 91.5,-167"/>
<text text-anchor="start" x="96.5" y="-175" font-family="Linux libertine" font-size="10.00">(1, 1, 3, 3, 321, 481) </text>
<polygon fill="none" stroke="black" points="47.5,-146 47.5,-167 91.5,-167 91.5,-146 47.5,-146"/>
<text text-anchor="start" x="52.5" y="-154" font-family="Linux libertine" font-size="10.00">output: </text>
<polygon fill="none" stroke="black" points="91.5,-146 91.5,-167 195.5,-167 195.5,-146 91.5,-146"/>
<text text-anchor="start" x="96.5" y="-154" font-family="Linux libertine" font-size="10.00">(1, 1, 321, 3, 481, 3) </text>
</g>
<!-- 8&#45;&gt;9 -->
<g id="edge9" class="edge">
<title>8&#45;&gt;9</title>
<path fill="none" stroke="black" d="M97.5,-223.63C97.5,-215.82 97.5,-206.73 97.5,-198.18"/>
<polygon fill="black" stroke="black" points="101,-198.16 97.5,-188.16 94,-198.16 101,-198.16"/>
</g>
<!-- 10 -->
<g id="node11" class="node">
<title>10</title>
<polygon fill="aliceblue" stroke="transparent" points="194,-110 1,-110 1,-68 194,-68 194,-110"/>
<polygon fill="none" stroke="black" points="1.5,-68 1.5,-110 46.5,-110 46.5,-68 1.5,-68"/>
<text text-anchor="start" x="6.5" y="-92" font-family="Linux libertine" font-size="10.00">reshape</text>
<text text-anchor="start" x="7" y="-81" font-family="Linux libertine" font-size="10.00">depth:1</text>
<polygon fill="none" stroke="black" points="46.5,-89 46.5,-110 90.5,-110 90.5,-89 46.5,-89"/>
<text text-anchor="start" x="56" y="-97" font-family="Linux libertine" font-size="10.00">input:</text>
<polygon fill="none" stroke="black" points="90.5,-89 90.5,-110 194.5,-110 194.5,-89 90.5,-89"/>
<text text-anchor="start" x="95.5" y="-97" font-family="Linux libertine" font-size="10.00">(1, 1, 321, 3, 481, 3) </text>
<polygon fill="none" stroke="black" points="46.5,-68 46.5,-89 90.5,-89 90.5,-68 46.5,-68"/>
<text text-anchor="start" x="51.5" y="-76" font-family="Linux libertine" font-size="10.00">output: </text>
<polygon fill="none" stroke="black" points="90.5,-68 90.5,-89 194.5,-89 194.5,-68 90.5,-68"/>
<text text-anchor="start" x="104.5" y="-76" font-family="Linux libertine" font-size="10.00">(1, 1, 963, 1443) </text>
</g>
<!-- 9&#45;&gt;10 -->
<g id="edge10" class="edge">
<title>9&#45;&gt;10</title>
<path fill="none" stroke="black" d="M97.5,-145.63C97.5,-137.82 97.5,-128.73 97.5,-120.18"/>
<polygon fill="black" stroke="black" points="101,-120.16 97.5,-110.16 94,-120.16 101,-120.16"/>
</g>
<!-- 11 -->
<g id="node12" class="node">
<title>11</title>
<polygon fill="lightyellow" stroke="transparent" points="173,-32 22,-32 22,0 173,0 173,-32"/>
<polygon fill="none" stroke="black" points="22.5,0 22.5,-32 90.5,-32 90.5,0 22.5,0"/>
<text text-anchor="start" x="27.5" y="-19" font-family="Linux libertine" font-size="10.00">output&#45;tensor</text>
<text text-anchor="start" x="39.5" y="-8" font-family="Linux libertine" font-size="10.00">depth:0</text>
<polygon fill="none" stroke="black" points="90.5,0 90.5,-32 173.5,-32 173.5,0 90.5,0"/>
<text text-anchor="start" x="95.5" y="-13.5" font-family="Linux libertine" font-size="10.00">(1, 1, 963, 1443)</text>
</g>
<!-- 10&#45;&gt;11 -->
<g id="edge11" class="edge">
<title>10&#45;&gt;11</title>
<path fill="none" stroke="black" d="M97.5,-67.84C97.5,-59.89 97.5,-50.66 97.5,-42.26"/>
<polygon fill="black" stroke="black" points="101,-42.24 97.5,-32.24 94,-42.24 101,-42.24"/>
</g>
</g>
</svg>
